<?xml version="1.0" encoding="UTF-8" standalone="no"?>
<!-- Created with Inkscape (http://www.inkscape.org/) -->

<svg
   xmlns:dc="http://purl.org/dc/elements/1.1/"
   xmlns:cc="http://creativecommons.org/ns#"
   xmlns:rdf="http://www.w3.org/1999/02/22-rdf-syntax-ns#"
   xmlns:svg="http://www.w3.org/2000/svg"
   xmlns="http://www.w3.org/2000/svg"
   xmlns:sodipodi="http://sodipodi.sourceforge.net/DTD/sodipodi-0.dtd"
   xmlns:inkscape="http://www.inkscape.org/namespaces/inkscape"
   width="152.16545mm"
   height="36.155586mm"
   viewBox="0 0 539.16893 128.11035"
   id="svg2"
   version="1.1"
   inkscape:version="0.91 r13725"
   sodipodi:docname="Logo-name-only-finished.svg">
  <defs
     id="defs4" />
  <sodipodi:namedview
     id="base"
     pagecolor="#000000"
     bordercolor="#666666"
     borderopacity="1.0"
     inkscape:pageopacity="0"
     inkscape:pageshadow="2"
     inkscape:zoom="0.49497475"
     inkscape:cx="366.76642"
     inkscape:cy="-247.58793"
     inkscape:document-units="px"
     inkscape:current-layer="layer1"
     showgrid="false"
     inkscape:window-width="1394"
     inkscape:window-height="855"
     inkscape:window-x="46"
     inkscape:window-y="1"
     inkscape:window-maximized="1"
     fit-margin-top="0"
     fit-margin-left="0"
     fit-margin-right="0"
     fit-margin-bottom="0" />
  <metadata
     id="metadata7">
    <rdf:RDF>
      <cc:Work
         rdf:about="">
        <dc:format>image/svg+xml</dc:format>
        <dc:type
           rdf:resource="http://purl.org/dc/dcmitype/StillImage" />
        <dc:title></dc:title>
      </cc:Work>
    </rdf:RDF>
  </metadata>
  <g
     inkscape:label="Layer 1"
     inkscape:groupmode="layer"
     id="layer1"
     transform="translate(-68.89855,-300.87804)">
    <g
       id="g4261"
       transform="matrix(1.086107,0,0,1.086107,-15.415521,-38.552251)" />
    <path
       inkscape:connector-curvature="0"
       id="path4623"
       style="font-style:normal;font-variant:normal;font-weight:normal;font-stretch:normal;font-size:95.0202713px;line-height:125%;font-family:'Xingkai SC';-inkscape-font-specification:'Xingkai SC, Normal';text-align:start;letter-spacing:0px;word-spacing:0px;writing-mode:lr-tb;text-anchor:start;fill:#ffffff;fill-opacity:1;stroke:none;stroke-width:1px;stroke-linecap:butt;stroke-linejoin:miter;stroke-opacity:1"
       d="m 109.22876,305.97398 q 0.0921,-2.05797 -2.21118,-2.05797 -0.82918,0 -3.04036,0.78399 -2.21116,0.68599 -5.251523,2.05798 -3.040364,1.27399 -6.633517,3.13596 -3.593153,1.86199 -7.186305,4.21396 -2.026907,1.37199 -3.316757,2.05798 -1.197718,0.58799 -1.842643,0.78399 -0.644924,0.098 -0.829188,-0.294 -0.09213,-0.48999 0,-1.37198 0.184264,-1.56798 2.487567,-4.11596 2.395435,-2.64597 8.199758,-6.76193 0.460662,-0.29399 0.82919,-0.19599 0.368528,0.098 0.09213,0.29399 -1.28985,1.07799 -2.487567,2.25398 -1.105585,1.07799 -2.395435,3.23397 5.067267,-2.64598 8.568287,-4.40996 3.593149,-1.76398 5.988591,-2.74396 2.48757,-1.078 4.05381,-1.47 1.56625,-0.48999 2.8561,-0.48999 2.5797,0.098 3.77741,1.17599 1.28986,0.97999 1.28986,3.52796 0,0.98 -0.36854,2.35198 -0.2764,1.37198 -1.19771,3.72396 -0.92132,2.25398 -2.57971,5.78194 -1.56624,3.52796 -4.3302,8.8199 -2.67184,5.19394 -6.541385,12.44586 -3.869548,7.15393 -9.21321,16.85583 6.449249,-8.62391 12.437835,-16.26782 6.08072,-7.74193 11.33225,-13.91586 5.25153,-6.17393 9.48961,-10.58388 4.23807,-4.50795 7.1863,-6.56594 3.86956,-2.64597 5.52793,-2.74397 0.36853,0 1.01345,0.78399 0.64493,0.784 1.19773,1.95998 0.64492,1.17599 1.01345,2.44998 0.46066,1.27398 0.46066,2.15597 0,1.56799 -0.2764,2.84197 -0.18426,1.17599 -0.92132,2.64598 -0.64492,1.37198 -1.84264,3.13597 -1.10559,1.76397 -2.94823,4.40995 -8.29189,11.95587 -13.08277,20.57978 -4.69873,8.6239 -6.72564,15.38583 -1.01345,3.42997 -0.46066,4.40996 0.64493,1.07798 3.31676,-0.78399 3.04036,-2.05799 5.25153,-3.72396 2.21118,-1.66599 4.14595,-3.33197 1.93477,-1.76399 3.77741,-3.62596 1.93478,-1.95998 4.23808,-4.50795 l 0,3.72396 q -10.68733,11.85787 -17.59724,15.87583 -3.96168,1.95998 -5.43579,0.48999 -1.47412,-1.37198 -1.47412,-5.09594 0,-2.44998 1.84265,-7.05593 1.93477,-4.60595 5.1594,-10.58389 3.31675,-6.07593 7.64697,-13.13186 4.33021,-7.15392 9.2132,-14.69984 1.93478,-2.93997 2.39544,-4.70395 0.55279,-1.86198 0.36853,-4.11595 0,-0.49 -0.46066,-0.78399 -0.46066,-0.39201 -1.01345,-0.39201 -1.38199,0 -5.7122,3.91997 -4.3302,3.82196 -10.50306,10.77989 -6.17285,6.85991 -13.63555,16.26782 -7.370571,9.4079 -14.925405,20.57978 -1.28985,1.95997 -2.395435,1.95997 -0.552793,0 -1.197718,-0.39199 -0.552793,-0.39199 -1.105585,-0.88199 -0.552793,-0.58799 -0.921322,-1.17598 -0.276396,-0.588 -0.276396,-1.078 0,-0.48999 0.552793,-1.76397 0.644925,-1.274 1.934775,-3.23397 3.224623,-4.89995 6.264983,-10.19189 3.132492,-5.29194 5.804324,-10.3879 2.763966,-5.19394 4.975126,-9.89789 2.30331,-4.80195 3.96169,-8.52591 1.65838,-3.82196 2.5797,-6.36993 1.01346,-2.54797 1.10559,-3.42997 z" />
    <path
       inkscape:connector-curvature="0"
       id="path4625"
       style="font-style:normal;font-variant:normal;font-weight:normal;font-stretch:normal;font-size:95.0202713px;line-height:125%;font-family:'Xingkai SC';-inkscape-font-specification:'Xingkai SC, Normal';text-align:start;letter-spacing:0px;word-spacing:0px;writing-mode:lr-tb;text-anchor:start;fill:#ffffff;fill-opacity:1;stroke:none;stroke-width:1px;stroke-linecap:butt;stroke-linejoin:miter;stroke-opacity:1"
       d="m 145.26249,342.0376 q 8.10763,-7.34992 13.81982,-10.09388 5.80432,-2.84198 9.39747,-2.93998 1.56625,-0.098 2.30331,0.686 0.82919,0.78398 0,1.56797 -0.46066,0.49001 -1.10558,0.68601 -0.64494,0.19599 -1.56626,0.48999 0.73706,1.27398 1.19773,2.64596 0.46066,1.274 0.46066,2.64598 0,1.27399 -0.18427,2.35198 -0.18426,0.97998 -0.92132,1.95997 -1.10559,1.56799 -2.3033,3.72396 -1.10559,2.15598 -2.11904,4.60596 -0.92132,2.35197 -1.65838,4.89994 -0.73706,2.44998 -1.01346,4.70395 -0.18426,1.76399 0.2764,2.44998 0.46066,0.58799 2.21117,-0.392 1.75051,-0.97999 4.97513,-3.72396 3.31676,-2.74397 8.75256,-7.64392 l 0,2.93997 q -11.33225,13.42585 -16.30739,13.42585 -1.56624,0 -2.39543,-0.97998 -0.73706,-0.97999 -0.82919,-3.82196 -0.0921,-1.95998 0.46066,-4.80195 0.64493,-2.84197 2.94823,-7.54592 -2.8561,3.62597 -5.43579,6.85992 -2.48757,3.23397 -5.15941,5.68395 -2.94823,2.64597 -4.6066,3.13596 -1.56625,0.392 -3.13249,-1.86198 -4.23808,-6.17393 -3.86955,-11.36788 0.46066,-5.29194 5.80432,-10.28989 z m 22.11171,-9.40789 q -4.14594,0.29399 -8.38403,2.74397 -4.14594,2.35197 -9.67386,7.34992 -8.47616,7.54592 -5.89646,14.01384 1.28984,3.33197 2.48757,3.82197 1.28984,0.392 2.85609,-0.98 2.94823,-2.54796 4.97514,-4.89994 2.02691,-2.44998 4.79086,-5.87994 2.5797,-3.23397 4.14596,-5.38994 1.65837,-2.25398 2.57969,-4.01795 1.01346,-1.76399 1.47412,-3.33197 0.46066,-1.56799 0.64492,-3.52796 l 0,0.098 z" />
    <path
       inkscape:connector-curvature="0"
       id="path4627"
       style="font-style:normal;font-variant:normal;font-weight:normal;font-stretch:normal;font-size:95.0202713px;line-height:125%;font-family:'Xingkai SC';-inkscape-font-specification:'Xingkai SC, Normal';text-align:start;letter-spacing:0px;word-spacing:0px;writing-mode:lr-tb;text-anchor:start;fill:#ffffff;fill-opacity:1;stroke:none;stroke-width:1px;stroke-linecap:butt;stroke-linejoin:miter;stroke-opacity:1"
       d="m 196.73988,327.82775 q 1.75051,-3.03796 3.13249,-4.89994 1.38198,-1.95998 2.48757,-3.13597 1.10558,-1.17599 2.11903,-1.66598 1.01346,-0.48999 2.02691,-0.68599 1.19772,-0.196 1.28985,0.294 0.18426,0.39199 -0.18426,0.88198 -0.5528,0.68599 -1.01345,1.27399 -0.36853,0.48999 -1.38198,1.86198 -1.01346,1.27398 -2.21118,3.03797 -1.10558,1.76398 -1.84264,3.23397 1.84264,0.098 3.40889,0.29399 1.56625,0.098 2.3033,0.294 -0.64492,1.27398 -0.92132,1.66598 -0.18426,0.39199 -0.27639,0.48999 -0.0921,0.098 -0.36853,0.392 -0.18427,0.19599 -0.8292,1.17599 -1.56624,-0.098 -2.76396,-0.196 -1.19772,-0.098 -3.68529,-0.29399 -4.3302,6.36992 -7.09417,10.97588 -2.76396,4.60595 -4.42234,7.93791 -1.56624,3.33197 -2.3033,5.58594 -0.64493,2.25398 -0.73706,3.82196 -0.18426,1.95998 0.64492,2.84197 0.92133,0.78399 2.02691,0.196 2.8561,-1.37199 6.63352,-4.31196 3.77741,-2.93997 9.766,-8.4279 l 0,3.23396 q -12.16144,14.01385 -17.96577,14.01385 -2.0269,0 -3.31675,-1.66598 -0.64493,-0.97999 -1.01345,-2.25398 -0.2764,-1.27398 -0.0921,-3.03796 0.18427,-1.86199 0.92132,-4.40996 0.73707,-2.54797 2.21118,-6.17393 -1.10559,0.97999 -2.11905,1.86198 -0.92131,0.88198 -2.21116,2.25398 l 0,-3.33197 q 1.93477,-1.86199 3.59315,-3.72396 1.75051,-1.86199 3.40889,-4.01796 1.75051,-2.25398 3.59315,-4.99795 1.93477,-2.84196 4.33021,-6.66393 -2.94823,-0.196 -4.883,0.098 -1.84265,0.196 -2.39544,0.39199 -2.11904,0.78399 -2.21117,0.196 -0.18426,-0.48999 -0.0921,-0.98 0.18426,-0.48999 1.01346,-1.76397 0.36852,-0.588 1.47411,-1.07799 1.10558,-0.49 2.11904,-0.588 3.13249,-0.294 7.73909,0 l 0.0921,0 z" />
    <path
       inkscape:connector-curvature="0"
       id="path4629"
       style="font-style:normal;font-variant:normal;font-weight:normal;font-stretch:normal;font-size:95.0202713px;line-height:125%;font-family:'Xingkai SC';-inkscape-font-specification:'Xingkai SC, Normal';text-align:start;letter-spacing:0px;word-spacing:0px;writing-mode:lr-tb;text-anchor:start;fill:#ffffff;fill-opacity:1;stroke:none;stroke-width:1px;stroke-linecap:butt;stroke-linejoin:miter;stroke-opacity:1"
       d="m 244.35779,353.60148 q -5.52793,6.17393 -9.39748,9.3099 -3.77742,3.13597 -5.98859,3.13597 -3.50102,0 -3.50102,-4.40995 0,-1.76399 0.82918,-4.21396 0.92133,-2.54797 2.48757,-5.48794 1.65839,-3.03797 3.77742,-6.46794 2.21117,-3.42996 4.79088,-6.95792 -3.22463,1.95998 -8.01551,7.15392 -4.69873,5.09595 -10.50306,12.73987 -1.28984,1.66598 -2.21117,3.03797 -0.82919,1.27398 -1.28985,1.86197 -0.92132,0.98 -1.84263,1.078 -3.50102,0 -3.50102,-9.21191 0,-1.86197 0.18426,-3.72396 0.27639,-1.86198 0.92132,-3.72396 0.64492,-1.95998 1.65837,-4.11595 1.10559,-2.15598 2.67183,-4.70395 7.83123,-12.64187 13.35916,-20.48178 5.52793,-7.93792 9.39748,-12.05387 3.68529,-4.01797 5.1594,-4.01797 1.75051,-0.098 1.65838,0.98 0,0.97999 -2.5797,3.82196 -2.8561,3.23396 -5.89646,6.95792 -3.04036,3.72396 -6.54138,8.72191 -3.40889,4.89994 -7.4627,11.46587 -3.96168,6.46794 -8.66042,15.18984 l -0.0921,9.6039 q 7.27844,-9.40789 12.52996,-14.79784 5.34367,-5.48795 8.38403,-7.83992 1.56624,-1.17598 2.67183,-1.56798 1.10559,-0.49 1.84264,-0.49 1.47412,0 2.21118,1.37199 0.82918,1.37199 -0.0921,2.64597 -2.02691,2.64597 -3.96168,5.68394 -1.93477,2.93997 -3.50102,5.68395 -1.56625,2.64596 -2.67183,4.70394 -1.01346,2.05798 -1.38199,2.93997 -0.73705,1.76398 -0.82918,2.64597 -0.0921,0.882 0.27639,1.27399 0.36853,0.294 1.01345,0.098 0.64493,-0.196 1.38199,-0.68599 1.7505,-1.176 3.22462,-2.25398 1.47411,-1.07799 2.8561,-2.25398 1.47411,-1.17599 3.04036,-2.54797 1.65838,-1.37199 3.59315,-3.13597 l 0,3.03797 z" />
    <path
       inkscape:connector-curvature="0"
       id="path4631"
       style="font-style:normal;font-variant:normal;font-weight:normal;font-stretch:normal;font-size:95.0202713px;line-height:125%;font-family:'Xingkai SC';-inkscape-font-specification:'Xingkai SC, Normal';text-align:start;letter-spacing:0px;word-spacing:0px;writing-mode:lr-tb;text-anchor:start;fill:#ffffff;fill-opacity:1;stroke:none;stroke-width:1px;stroke-linecap:butt;stroke-linejoin:miter;stroke-opacity:1"
       d="m 252.51004,342.0376 q 8.10762,-7.34992 13.81982,-10.09388 5.80432,-2.84198 9.39748,-2.93998 1.56624,-0.098 2.30329,0.686 0.8292,0.78398 0,1.56797 -0.46066,0.49001 -1.10558,0.68601 -0.64492,0.19599 -1.56624,0.48999 0.73705,1.27398 1.19771,2.64596 0.46066,1.274 0.46066,2.64598 0,1.27399 -0.18426,2.35198 -0.18426,0.97998 -0.92132,1.95997 -1.10558,1.56799 -2.30331,3.72396 -1.10558,2.15598 -2.11903,4.60596 -0.92133,2.35197 -1.65838,4.89994 -0.73706,2.44998 -1.01345,4.70395 -0.18427,1.76399 0.27639,2.44998 0.46066,0.58799 2.21117,-0.392 1.75051,-0.97999 4.97514,-3.72396 3.31675,-2.74397 8.75255,-7.64392 l 0,2.93997 q -11.33225,13.42585 -16.30738,13.42585 -1.56626,0 -2.39544,-0.97998 -0.73706,-0.97999 -0.82919,-3.82196 -0.0921,-1.95998 0.46066,-4.80195 0.64492,-2.84197 2.94823,-7.54592 -2.8561,3.62597 -5.4358,6.85992 -2.48757,3.23397 -5.15939,5.68395 -2.94823,2.64597 -4.60662,3.13596 -1.56624,0.392 -3.13249,-1.86198 -4.23807,-6.17393 -3.86955,-11.36788 0.46066,-5.29194 5.80433,-10.28989 z m 22.1117,-9.40789 q -4.14594,0.29399 -8.38401,2.74397 -4.14595,2.35197 -9.67388,7.34992 -8.47615,7.54592 -5.89646,14.01384 1.28986,3.33197 2.48757,3.82197 1.28986,0.392 2.8561,-0.98 2.94823,-2.54796 4.97513,-4.89994 2.02691,-2.44998 4.79088,-5.87994 2.5797,-3.23397 4.14594,-5.38994 1.65838,-2.25398 2.5797,-4.01795 1.01345,-1.76399 1.47411,-3.33197 0.46066,-1.56799 0.64492,-3.52796 l 0,0.098 z" />
    <path
       inkscape:connector-curvature="0"
       id="path4633"
       style="font-style:normal;font-variant:normal;font-weight:normal;font-stretch:normal;font-size:95.0202713px;line-height:125%;font-family:'Xingkai SC';-inkscape-font-specification:'Xingkai SC, Normal';text-align:start;letter-spacing:0px;word-spacing:0px;writing-mode:lr-tb;text-anchor:start;fill:#ffffff;fill-opacity:1;stroke:none;stroke-width:1px;stroke-linecap:butt;stroke-linejoin:miter;stroke-opacity:1"
       d="m 316.79379,340.17562 q -3.86956,4.21396 -6.26499,8.32991 -2.3033,4.01796 -4.23808,9.01591 -1.01345,2.64597 -0.46066,3.62596 0.64493,0.88199 2.5797,-0.58799 2.67183,-1.95998 5.34367,-4.40996 2.67182,-2.44997 6.81778,-5.78193 l 0,3.33196 q -3.31676,3.72396 -5.80433,6.07593 -2.39544,2.35198 -4.23808,3.82196 -1.84264,1.37199 -3.13249,2.05798 -1.28986,0.588 -2.21117,0.68599 -1.28985,0.196 -2.21118,-0.97998 -0.82918,-1.274 -0.73705,-3.82196 0.0921,-1.95999 1.01346,-4.99795 1.01345,-3.03796 3.50102,-6.95793 2.11903,-3.33196 4.05381,-6.17393 1.93477,-2.93997 4.33021,-6.95793 -1.10559,0.588 -3.50102,2.54798 -2.30331,1.95997 -5.1594,4.99794 -2.8561,3.03797 -5.98859,6.95793 -3.04036,3.91996 -5.62006,8.23191 -1.75051,2.84197 -2.8561,3.91996 -1.01345,1.07799 -1.93477,0.97998 -1.19772,-0.098 -2.11904,-1.76397 -0.82919,-1.66598 -1.28985,-3.91996 -0.46066,-2.35198 -0.46066,-4.80195 0,-2.54797 0.5528,-4.31196 0.36852,-0.78399 0.92131,-1.86197 0.5528,-1.07799 1.28985,-2.35198 1.93478,-3.03797 3.31676,-4.89995 1.38198,-1.95998 2.48757,-2.93997 1.10558,-1.07798 1.93478,-1.46998 0.92131,-0.39199 1.93476,-0.48999 2.11905,-0.19601 1.75052,0.88199 -0.36853,0.97999 -2.21117,2.84197 -3.68529,3.62596 -5.7122,6.56592 -2.0269,2.84197 -2.48756,6.56593 -0.46066,4.40996 0.46066,5.48795 0.92132,1.07799 2.48757,-1.27399 2.0269,-2.93996 3.59315,-5.09594 1.65838,-2.25398 3.13249,-4.01796 1.47411,-1.86199 2.94822,-3.52796 1.56626,-1.66599 3.40889,-3.42997 3.22463,-3.23396 6.17286,-5.48794 2.94823,-2.25397 4.60661,-2.44997 0.36853,0 0.73705,0.58799 0.36853,0.58799 0.64493,1.37198 0.27639,0.68599 0.36852,1.46999 0.18427,0.78399 0.18427,1.17599 0,1.07798 -1.93477,3.23396 z" />
    <path
       inkscape:connector-curvature="0"
       id="path4635"
       style="font-style:normal;font-variant:normal;font-weight:normal;font-stretch:normal;font-size:95.0202713px;line-height:125%;font-family:'Xingkai SC';-inkscape-font-specification:'Xingkai SC, Normal';text-align:start;letter-spacing:0px;word-spacing:0px;writing-mode:lr-tb;text-anchor:start;fill:#ffffff;fill-opacity:1;stroke:none;stroke-width:1px;stroke-linecap:butt;stroke-linejoin:miter;stroke-opacity:1"
       d="m 379.23778,306.65998 q -2.67183,0.098 -5.4358,0.49 -2.76395,0.39199 -5.98858,1.17598 -3.13249,0.78399 -6.90991,2.25398 -3.68528,1.37198 -8.29189,3.52796 -2.8561,1.37199 -1.84264,-0.19599 0.64492,-0.98 0.82919,-1.37199 0.27639,-0.392 0.46066,-0.686 0.18426,-0.29399 0.46065,-0.78399 0.2764,-0.48999 1.01345,-1.76398 15.47821,-5.97793 27.82391,-5.97793 13.81982,0 19.34774,6.27192 1.93478,2.25398 2.8561,5.19396 1.01345,2.93997 1.10558,6.27193 0.18428,3.33197 -0.55279,6.76192 -0.73705,3.42996 -2.21116,6.66393 -2.21118,4.60596 -6.08073,8.32992 -3.86954,3.72396 -9.30534,6.17393 -5.34366,2.44997 -12.16144,3.42996 -6.72564,0.882 -14.74114,-0.098 l -4.42234,8.72192 q 0.73705,1.37198 0.55279,2.25397 -0.0921,0.88199 -0.64492,1.86198 -0.92132,1.46998 -1.93478,3.03797 -1.01345,1.66598 -2.48756,3.82196 -1.38199,1.95997 -1.93478,1.66598 -0.46066,-0.196 -0.2764,-2.64598 0.18427,-1.86197 2.21118,-7.05592 2.0269,-5.19394 6.17284,-12.83786 -1.56624,-0.68599 -2.57969,-1.37198 -0.92133,-0.686 -1.65838,-1.56799 -0.64493,-0.78399 -0.46066,-1.86198 0.27639,-1.07799 1.65838,-2.15598 0.82919,-0.68599 1.93477,-1.37198 1.19771,-0.686 2.39544,-1.17599 1.28984,-0.588 2.48757,-0.88199 1.19771,-0.392 2.11903,-0.58799 L 379.23778,306.66 Z m -17.96576,42.23755 q 6.63351,0.784 11.88504,0.19599 5.34367,-0.68599 8.93682,-2.15597 4.23807,-1.66598 7.83123,-3.91995 3.59315,-2.35198 6.17285,-5.58595 2.5797,-3.23397 3.96168,-7.54592 1.38199,-4.31195 1.28986,-10.09389 0,-2.35197 -1.19773,-4.70395 -1.10558,-2.44998 -3.68528,-4.31195 -2.48757,-1.95998 -6.63352,-3.03797 -4.05381,-1.17598 -9.95027,-1.07799 0.2764,1.86198 0,3.72396 -0.18426,1.76398 -1.65837,4.89995 l -11.60865,24.00975 7.00204,-0.784 q 0.82919,-0.098 0.73706,0.686 0,0.68599 -1.19772,0.88199 l -7.64696,1.46998 -4.23808,7.34992 z" />
    <path
       inkscape:connector-curvature="0"
       id="path4637"
       style="font-style:normal;font-variant:normal;font-weight:normal;font-stretch:normal;font-size:95.0202713px;line-height:125%;font-family:'Xingkai SC';-inkscape-font-specification:'Xingkai SC, Normal';text-align:start;letter-spacing:0px;word-spacing:0px;writing-mode:lr-tb;text-anchor:start;fill:#ffffff;fill-opacity:1;stroke:none;stroke-width:1px;stroke-linecap:butt;stroke-linejoin:miter;stroke-opacity:1"
       d="m 432.39515,340.66562 q -4.14595,6.76193 -7.73911,11.56387 -3.50102,4.80196 -6.72564,8.13391 -1.84264,1.95999 -3.13249,2.93997 -1.28985,0.98 -2.39543,0.98 -1.65839,0 -3.1325,-1.46999 -1.01345,-0.88199 -1.65838,-2.35198 -0.64492,-1.56798 -1.01345,-3.33195 -0.36853,-1.86199 -0.46066,-3.72396 0,-1.95999 0.36853,-3.62596 0.18426,-1.078 1.19771,-3.13597 1.01346,-2.15598 2.57971,-4.21397 1.47411,-1.95997 2.48756,-3.33195 1.01346,-1.37199 1.84264,-2.25398 0.8292,-0.97999 1.47412,-1.66599 0.64492,-0.78399 1.28985,-1.37198 0.46066,-0.48999 1.10559,-0.78399 0.73705,-0.294 1.28985,-0.294 0.64492,0 1.10558,0.294 0.46066,0.196 0.46066,0.58799 0,0.294 -0.46066,1.27399 -0.46066,0.97999 -1.19772,2.15598 -1.84264,2.84197 -4.3302,5.87994 -2.48757,2.93996 -5.15941,5.78193 -0.82918,2.35198 -0.82918,4.60596 0.0921,2.15597 0.73705,3.82196 0.64492,1.56798 1.65838,2.15597 1.01345,0.58799 2.02691,-0.294 1.19772,-0.97998 2.11904,-1.86197 1.01345,-0.882 2.11903,-2.05799 1.10559,-1.17598 2.48757,-2.84197 1.47412,-1.66597 3.68528,-4.31195 0.73706,-0.97999 2.11905,-2.84197 1.47411,-1.86198 2.76396,-4.11596 1.19772,-1.95997 2.21117,-3.13596 1.01346,-1.17599 1.75051,-1.95998 1.65838,-1.95998 2.76397,-3.13597 1.10558,-1.17599 1.7505,-1.76398 1.38199,-1.17599 1.84265,-1.27398 0.55279,-0.098 0.92132,0.58799 0.55279,1.17598 0.27639,2.35198 -0.27639,1.07798 -1.19771,2.74397 -0.18426,0.294 -0.8292,1.37198 -0.55279,1.07799 -1.38197,2.25398 -4.42234,6.46792 -7.18631,11.85787 -2.67183,5.38994 -2.8561,9.60389 -0.0921,2.25398 2.8561,0.588 1.84264,-0.88199 4.97513,-3.82195 3.13249,-2.93997 7.55484,-6.76193 l 0,3.23396 q -3.50102,3.52797 -5.98859,5.87993 -2.39544,2.35198 -4.14594,3.72396 -1.75052,1.372 -3.04036,1.95999 -1.28986,0.58799 -2.48757,0.68599 -1.84265,0.098 -2.48757,-1.07799 -0.64492,-1.27399 -0.64492,-3.72396 0,-0.88199 0.27639,-2.25398 0.2764,-1.46998 1.19772,-3.82196 0.92132,-2.35197 2.5797,-5.78194 1.75051,-3.52796 4.60661,-8.6239 z" />
    <path
       inkscape:connector-curvature="0"
       id="path4639"
       style="font-style:normal;font-variant:normal;font-weight:normal;font-stretch:normal;font-size:95.0202713px;line-height:125%;font-family:'Xingkai SC';-inkscape-font-specification:'Xingkai SC, Normal';text-align:start;letter-spacing:0px;word-spacing:0px;writing-mode:lr-tb;text-anchor:start;fill:#ffffff;fill-opacity:1;stroke:none;stroke-width:1px;stroke-linecap:butt;stroke-linejoin:miter;stroke-opacity:1"
       d="m 462.51946,327.82775 q 1.7505,-3.03796 3.13249,-4.89994 1.38198,-1.95998 2.48756,-3.13597 1.10559,-1.17599 2.11904,-1.66598 1.01345,-0.48999 2.02691,-0.68599 1.19772,-0.196 1.28985,0.294 0.18426,0.39199 -0.18427,0.88198 -0.55279,0.68599 -1.01345,1.27399 -0.36853,0.48999 -1.38198,1.86198 -1.01345,1.27398 -2.21118,3.03797 -1.10558,1.76398 -1.84264,3.23397 1.84264,0.098 3.40889,0.29399 1.56624,0.098 2.30331,0.294 -0.64493,1.27398 -0.92133,1.66598 -0.18426,0.39199 -0.27639,0.48999 -0.0921,0.098 -0.36853,0.392 -0.18427,0.19599 -0.82919,1.17599 -1.56625,-0.098 -2.76396,-0.196 -1.19772,-0.098 -3.68529,-0.29399 -4.33021,6.36992 -7.09417,10.97588 -2.76397,4.60595 -4.42234,7.93791 -1.56625,3.33197 -2.30331,5.58594 -0.64492,2.25398 -0.73705,3.82196 -0.18426,1.95998 0.64492,2.84197 0.92132,0.78399 2.02691,0.196 2.85609,-1.37199 6.63351,-4.31196 3.77742,-2.93997 9.766,-8.4279 l 0,3.23396 q -12.16143,14.01385 -17.96576,14.01385 -2.02691,0 -3.31676,-1.66598 -0.64492,-0.97999 -1.01345,-2.25398 -0.27639,-1.27398 -0.0921,-3.03796 0.18427,-1.86199 0.92132,-4.40996 0.73706,-2.54797 2.21117,-6.17393 -1.10559,0.97999 -2.11904,1.86198 -0.92132,0.88198 -2.21117,2.25398 l 0,-3.33197 q 1.93478,-1.86199 3.59315,-3.72396 1.75052,-1.86199 3.40889,-4.01796 1.75051,-2.25398 3.59316,-4.99795 1.93477,-2.84196 4.33021,-6.66393 -2.94823,-0.196 -4.88301,0.098 -1.84264,0.196 -2.39543,0.39199 -2.11904,0.78399 -2.21117,0.196 -0.18427,-0.48999 -0.0921,-0.98 0.18427,-0.48999 1.01345,-1.76397 0.36853,-0.588 1.47412,-1.07799 1.10559,-0.49 2.11904,-0.588 3.13249,-0.294 7.7391,0 l 0.0921,0 z" />
    <path
       inkscape:connector-curvature="0"
       id="path4641"
       style="font-style:normal;font-variant:normal;font-weight:normal;font-stretch:normal;font-size:95.0202713px;line-height:125%;font-family:'Xingkai SC';-inkscape-font-specification:'Xingkai SC, Normal';text-align:start;letter-spacing:0px;word-spacing:0px;writing-mode:lr-tb;text-anchor:start;fill:#ffffff;fill-opacity:1;stroke:none;stroke-width:1px;stroke-linecap:butt;stroke-linejoin:miter;stroke-opacity:1"
       d="m 506.63635,340.17562 q -3.86954,4.21396 -6.26498,8.32991 -2.30331,4.01796 -4.23808,9.01591 -1.01346,2.64597 -0.46067,3.62596 0.64494,0.88199 2.5797,-0.58799 2.67184,-1.95998 5.34367,-4.40996 2.67184,-2.44997 6.81778,-5.78193 l 0,3.33196 q -3.31676,3.72396 -5.80433,6.07593 -2.39544,2.35198 -4.23807,3.82196 -1.84265,1.37199 -3.1325,2.05798 -1.28984,0.588 -2.21117,0.68599 -1.28985,0.196 -2.21116,-0.97998 -0.8292,-1.274 -0.73707,-3.82196 0.0921,-1.95999 1.01346,-4.99795 1.01345,-3.03796 3.50102,-6.95793 2.11903,-3.33196 4.05381,-6.17393 1.93478,-2.93997 4.33021,-6.95793 -1.10558,0.588 -3.50102,2.54798 -2.3033,1.95997 -5.15939,4.99794 -2.8561,3.03797 -5.98859,6.95793 -3.04037,3.91996 -5.62007,8.23191 -1.7505,2.84197 -2.85609,3.91996 -1.01345,1.07799 -1.93477,0.97998 -1.19772,-0.098 -2.11905,-1.76397 -0.82918,-1.66598 -1.28984,-3.91996 -0.46066,-2.35198 -0.46066,-4.80195 0,-2.54797 0.55279,-4.31196 0.36853,-0.78399 0.92132,-1.86197 0.55279,-1.07799 1.28985,-2.35198 1.93477,-3.03797 3.31676,-4.89995 1.38198,-1.95998 2.48756,-2.93997 1.10559,-1.07798 1.93478,-1.46998 0.92132,-0.39199 1.93477,-0.48999 2.11904,-0.19601 1.75051,0.88199 -0.36852,0.97999 -2.21117,2.84197 -3.68528,3.62596 -5.71219,6.56592 -2.02691,2.84197 -2.48757,6.56593 -0.46065,4.40996 0.46066,5.48795 0.92132,1.07799 2.48757,-1.27399 2.0269,-2.93996 3.59316,-5.09594 1.65837,-2.25398 3.13249,-4.01796 1.47411,-1.86199 2.94823,-3.52796 1.56624,-1.66599 3.40889,-3.42997 3.22461,-3.23396 6.17284,-5.48794 2.94823,-2.25397 4.60661,-2.44997 0.36853,0 0.73706,0.58799 0.36853,0.58799 0.64492,1.37198 0.2764,0.68599 0.36853,1.46999 0.18426,0.78399 0.18426,1.17599 0,1.07798 -1.93477,3.23396 z" />
    <path
       inkscape:connector-curvature="0"
       id="path4643"
       style="font-style:normal;font-variant:normal;font-weight:normal;font-stretch:normal;font-size:95.0202713px;line-height:125%;font-family:'Xingkai SC';-inkscape-font-specification:'Xingkai SC, Normal';text-align:start;letter-spacing:0px;word-spacing:0px;writing-mode:lr-tb;text-anchor:start;fill:#ffffff;fill-opacity:1;stroke:none;stroke-width:1px;stroke-linecap:butt;stroke-linejoin:miter;stroke-opacity:1"
       d="m 517.74977,342.0376 q 8.10763,-7.34992 13.81982,-10.09388 5.80433,-2.84198 9.39748,-2.93998 1.56625,-0.098 2.3033,0.686 0.82919,0.78398 0,1.56797 -0.46066,0.49001 -1.10559,0.68601 -0.64492,0.19599 -1.56624,0.48999 0.73705,1.27398 1.19771,2.64596 0.46067,1.274 0.46067,2.64598 0,1.27399 -0.18427,2.35198 -0.18426,0.97998 -0.92132,1.95997 -1.10558,1.56799 -2.3033,3.72396 -1.10559,2.15598 -2.11904,4.60596 -0.92132,2.35197 -1.65838,4.89994 -0.73706,2.44998 -1.01345,4.70395 -0.18427,1.76399 0.27639,2.44998 0.46066,0.58799 2.21118,-0.392 1.7505,-0.97999 4.97513,-3.72396 3.31676,-2.74397 8.75255,-7.64392 l 0,2.93997 q -11.33224,13.42585 -16.30738,13.42585 -1.56624,0 -2.39544,-0.97998 -0.73706,-0.97999 -0.82919,-3.82196 -0.0921,-1.95998 0.46066,-4.80195 0.64492,-2.84197 2.94823,-7.54592 -2.8561,3.62597 -5.43579,6.85992 -2.48757,3.23397 -5.1594,5.68395 -2.94823,2.64597 -4.60661,3.13596 -1.56625,0.392 -3.13249,-1.86198 -4.23808,-6.17393 -3.86955,-11.36788 0.46066,-5.29194 5.80432,-10.28989 z m 22.11172,-9.40789 q -4.14595,0.29399 -8.38403,2.74397 -4.14595,2.35197 -9.67388,7.34992 -8.47615,7.54592 -5.89645,14.01384 1.28985,3.33197 2.48756,3.82197 1.28986,0.392 2.8561,-0.98 2.94823,-2.54796 4.97514,-4.89994 2.0269,-2.44998 4.79087,-5.87994 2.5797,-3.23397 4.14594,-5.38994 1.65838,-2.25398 2.5797,-4.01795 1.01345,-1.76399 1.47412,-3.33197 0.46066,-1.56799 0.64493,-3.52796 l 0,0.098 z" />
    <path
       inkscape:connector-curvature="0"
       id="path4645"
       style="font-style:normal;font-variant:normal;font-weight:normal;font-stretch:normal;font-size:95.0202713px;line-height:125%;font-family:'Xingkai SC';-inkscape-font-specification:'Xingkai SC, Normal';text-align:start;letter-spacing:0px;word-spacing:0px;writing-mode:lr-tb;text-anchor:start;fill:#ffffff;fill-opacity:1;stroke:none;stroke-width:1px;stroke-linecap:butt;stroke-linejoin:miter;stroke-opacity:1"
       d="m 571.43836,358.89342 q 3.13249,-2.93997 6.26498,-6.27193 3.1325,-3.42997 5.43579,-5.58594 6.81778,-6.76193 9.95027,-9.7999 3.22463,-3.03797 3.96168,-3.03797 0.92133,0 1.65838,1.47 0.73706,1.46998 0.73706,3.03795 0,0.98 -2.94823,4.31197 -0.73705,0.88198 -1.65837,2.35196 -0.92133,1.372 -1.93478,3.03797 -1.01345,1.56799 -2.0269,3.23397 -0.92133,1.66599 -1.75052,3.13597 -1.28984,2.25398 -1.84264,3.91996 -0.46066,1.66597 -0.2764,2.54797 0.18426,0.78399 1.10559,0.68599 0.92132,-0.098 2.57969,-1.37198 2.8561,-2.15598 5.80433,-4.50796 2.94823,-2.44997 6.54138,-5.68393 l 0,3.42996 q -6.17285,6.17393 -10.0424,9.2119 -3.77742,3.03797 -6.54138,3.23397 -1.93477,0 -2.8561,-1.86198 -0.92132,-1.95998 0.0921,-5.38995 0.18427,-0.58799 1.01346,-2.35198 0.82919,-1.76397 2.21117,-4.21395 1.47412,-2.54797 3.40889,-5.68393 2.02691,-3.23397 4.51448,-6.66393 -2.30331,2.05797 -4.79088,4.50795 -2.48756,2.35197 -4.883,4.70394 -2.3033,2.35198 -4.3302,4.40996 -1.93478,2.05798 -3.04037,3.42997 -1.19772,1.37198 -2.39543,2.74396 -1.19772,1.27399 -1.93478,2.15598 -1.19772,1.56798 -2.0269,2.25398 -0.82919,0.68599 -1.93478,0.68599 -1.10558,0 -1.38198,-0.882 -0.2764,-0.88198 -0.2764,-2.64596 0,-0.68599 0.73706,-2.54798 0.82919,-1.86197 2.21117,-4.60594 1.47411,-2.74398 3.40889,-6.07594 2.0269,-3.33197 4.42234,-6.95793 1.56624,-2.15597 1.56624,-3.03797 0,-0.88199 -0.82918,-0.97999 -0.46066,-0.098 -1.84264,0.97999 -1.28986,1.078 -3.13249,3.03797 -2.11905,2.15598 -4.42235,4.89995 -2.21117,2.64597 -4.23808,5.29194 -2.0269,2.64598 -3.59315,4.89995 -1.56624,2.15598 -2.30331,3.23396 -0.92131,1.372 -1.56624,2.35198 -0.64492,0.97999 -1.10558,1.46998 -1.01346,1.37199 -2.30331,0.882 -1.28984,-0.588 -2.3033,-3.03797 -1.38198,-2.93997 -1.38198,-7.05592 0,-1.46999 0.0921,-2.54798 0.18427,-1.07798 0.55279,-2.15598 0.46066,-1.17598 1.19772,-2.44997 0.73706,-1.37199 1.93478,-3.33196 2.85609,-4.70395 4.97513,-6.76193 2.21117,-2.05798 3.96169,-1.86199 2.11903,0.19601 2.21116,1.078 0.0921,0.78399 -1.93477,2.54796 -1.19772,1.078 -2.39544,2.35198 -1.10558,1.17599 -2.39543,2.44998 -0.73706,0.68599 -1.65838,1.86197 -0.82918,1.176 -1.38199,2.25398 -2.48756,4.99795 -2.30329,7.74192 0.18426,2.74397 1.7505,2.64598 0.18427,0 0.64493,-0.196 0.46067,-0.294 1.19772,-1.078 0.82919,-0.88199 2.0269,-2.44996 1.28986,-1.56799 3.13249,-4.21396 1.75052,-2.54797 4.14595,-5.38995 2.48757,-2.93997 5.06727,-5.48793 2.5797,-2.54798 5.06726,-4.21397 2.48757,-1.76397 4.23809,-1.95997 1.7505,-0.196 2.48756,1.76398 0.73706,1.86198 -0.82919,4.99795 -1.65837,3.33197 -4.51447,8.32991 -2.8561,4.89994 -7.00204,10.77988 z" />
    <path
       style="opacity:1;fill:#00ff00;fill-opacity:0.47058824;stroke:#ffffff;stroke-width:2;stroke-linecap:butt;stroke-linejoin:miter;stroke-miterlimit:3.0999999;stroke-dasharray:none;stroke-dashoffset:0;stroke-opacity:1"
       d="m 68.89855,372.42999 539.16891,0"
       id="path5004"
       inkscape:connector-curvature="0"
       sodipodi:nodetypes="cc" />
    <path
       inkscape:connector-curvature="0"
       id="path5006"
       d="m 68.89855,427.98838 539.16891,0"
       style="opacity:1;fill:#00ff00;fill-opacity:0.47058824;stroke:#ffffff;stroke-width:2;stroke-linecap:butt;stroke-linejoin:miter;stroke-miterlimit:3.0999999;stroke-dasharray:none;stroke-dashoffset:0;stroke-opacity:1"
       sodipodi:nodetypes="cc" />
    <path
       inkscape:connector-curvature="0"
       id="path4598"
       style="font-style:normal;font-variant:normal;font-weight:normal;font-stretch:normal;font-size:medium;line-height:125%;font-family:Eurostile;-inkscape-font-specification:'Eurostile, Normal';text-align:start;letter-spacing:0px;word-spacing:0px;writing-mode:lr-tb;text-anchor:start;fill:#ffffff;fill-opacity:1;stroke:none;stroke-width:1px;stroke-linecap:butt;stroke-linejoin:miter;stroke-opacity:1"
       d="m 227.53329,382.53152 -10.49804,33.3252 -5.71289,0 -7.00684,-23.99902 -0.87891,-3.00293 q -0.0732,-0.24414 -0.41503,-1.48926 l -0.43946,-1.51367 -0.0732,0 -0.41504,1.51367 -0.43945,1.51367 -0.90332,3.02734 -7.12891,23.9502 -5.61523,0 -10.22949,-33.3252 3.85742,0 7.17773,23.9502 0.97656,3.24707 q 0.12207,0.39063 0.48829,1.61133 l 0.46386,1.63574 0.0732,0 0.46387,-1.63574 0.46387,-1.61133 0.95215,-3.22266 7.08008,-23.97461 5.5664,0 7.03125,23.99903 0.95215,3.19824 0.43945,1.63574 0.46387,1.61133 0.0732,0 0.48828,-1.63574 0.48829,-1.63574 1.00097,-3.27149 7.32422,-23.90137 3.93066,0 z" />
    <path
       inkscape:connector-curvature="0"
       id="path4600"
       style="font-style:normal;font-variant:normal;font-weight:normal;font-stretch:normal;font-size:medium;line-height:125%;font-family:Eurostile;-inkscape-font-specification:'Eurostile, Normal';text-align:start;letter-spacing:0px;word-spacing:0px;writing-mode:lr-tb;text-anchor:start;fill:#ffffff;fill-opacity:1;stroke:none;stroke-width:1px;stroke-linecap:butt;stroke-linejoin:miter;stroke-opacity:1"
       d="m 246.84482,408.80106 3.49121,0 0.0244,0.85449 q 0,3.63769 -2.22168,5.10254 -2.19726,1.44043 -7.73925,1.44043 -6.44532,0 -8.47168,-2.34375 -2.00196,-2.36817 -2.00196,-9.91211 0,-6.98242 2.02637,-9.375 2.02637,-2.39258 7.93457,-2.39258 6.44531,0 8.44727,2.07519 2.00195,2.0752 2.00195,8.74024 l 0,1.83105 -16.79688,0 q 0,5.51758 1.17188,7.03125 1.19629,1.51368 5.54199,1.51368 4.12598,0 5.34668,-0.70801 1.24512,-0.73242 1.24512,-3.125 l 0,-0.73242 z m 0,-6.64063 -0.0244,-1.09863 q 0,-3.78418 -1.24511,-4.90723 -1.24512,-1.14746 -5.3711,-1.14746 -4.15039,0 -5.3955,1.34277 -1.22071,1.31836 -1.22071,5.81055 l 13.25684,0 z" />
    <path
       inkscape:connector-curvature="0"
       id="path4602"
       style="font-style:normal;font-variant:normal;font-weight:normal;font-stretch:normal;font-size:medium;line-height:125%;font-family:Eurostile;-inkscape-font-specification:'Eurostile, Normal';text-align:start;letter-spacing:0px;word-spacing:0px;writing-mode:lr-tb;text-anchor:start;fill:#ffffff;fill-opacity:1;stroke:none;stroke-width:1px;stroke-linecap:butt;stroke-linejoin:miter;stroke-opacity:1"
       d="m 255.80478,415.85672 0,-33.3252 3.41797,0 0,12.96387 0.0732,0.0732 q 1.17187,-3.39355 7.66602,-3.39355 5.12695,0 7.08007,2.66113 1.95313,2.66113 1.95313,9.64356 0,6.61621 -2.0752,9.17968 -2.05078,2.53907 -7.44629,2.53907 -5.49316,0 -7.32421,-3.24707 l -0.0977,0.0244 0.1709,2.88086 -3.41797,0 z m 10.27832,-20.84961 q -4.02832,0 -5.39551,1.7334 -1.36719,1.70898 -1.36719,6.83594 0,6.32324 1.22071,8.05664 1.24511,1.7334 5.68847,1.7334 3.75977,0 4.95606,-1.75782 1.2207,-1.78222 1.2207,-7.27539 0,-5.78613 -1.19629,-7.54394 -1.19629,-1.78223 -5.12695,-1.78223 z" />
    <path
       inkscape:connector-curvature="0"
       id="path4604"
       style="font-style:normal;font-variant:normal;font-weight:normal;font-stretch:normal;font-size:medium;line-height:125%;font-family:Eurostile;-inkscape-font-specification:'Eurostile, Normal';text-align:start;letter-spacing:0px;word-spacing:0px;writing-mode:lr-tb;text-anchor:start;fill:#ffffff;fill-opacity:1;stroke:none;stroke-width:1px;stroke-linecap:butt;stroke-linejoin:miter;stroke-opacity:1"
       d="m 294.06161,415.85672 0,-33.3252 15.42969,0 q 7.15332,0 9.69239,3.14942 2.53906,3.14941 2.53906,12.06055 0,10.83984 -2.27051,14.47753 -2.24609,3.6377 -9.00879,3.6377 l -16.38184,0 z m 3.75977,-3.17383 10.86426,0 q 5.98144,0 7.71484,-2.39258 1.7334,-2.39257 1.7334,-10.66894 0,-9.08203 -1.51367,-11.49903 -1.48926,-2.41699 -7.17774,-2.41699 l -11.62109,0 0,26.97754 z" />
    <path
       inkscape:connector-curvature="0"
       id="path4606"
       style="font-style:normal;font-variant:normal;font-weight:normal;font-stretch:normal;font-size:medium;line-height:125%;font-family:Eurostile;-inkscape-font-specification:'Eurostile, Normal';text-align:start;letter-spacing:0px;word-spacing:0px;writing-mode:lr-tb;text-anchor:start;fill:#ffffff;fill-opacity:1;stroke:none;stroke-width:1px;stroke-linecap:butt;stroke-linejoin:miter;stroke-opacity:1"
       d="m 342.74326,408.80106 3.49121,0 0.0244,0.85449 q 0,3.63769 -2.22168,5.10254 -2.19726,1.44043 -7.73926,1.44043 -6.44531,0 -8.47168,-2.34375 -2.00195,-2.36817 -2.00195,-9.91211 0,-6.98242 2.02637,-9.375 2.02636,-2.39258 7.93457,-2.39258 6.44531,0 8.44726,2.07519 2.00196,2.0752 2.00196,8.74024 l 0,1.83105 -16.79688,0 q 0,5.51758 1.17188,7.03125 1.19629,1.51368 5.54199,1.51368 4.12598,0 5.34668,-0.70801 1.24512,-0.73242 1.24512,-3.125 l 0,-0.73242 z m 0,-6.64063 -0.0244,-1.09863 q 0,-3.78418 -1.24512,-4.90723 -1.24511,-1.14746 -5.37109,-1.14746 -4.15039,0 -5.39551,1.34277 -1.2207,1.31836 -1.2207,5.81055 l 13.25684,0 z" />
    <path
       inkscape:connector-curvature="0"
       id="path4608"
       style="font-style:normal;font-variant:normal;font-weight:normal;font-stretch:normal;font-size:medium;line-height:125%;font-family:Eurostile;-inkscape-font-specification:'Eurostile, Normal';text-align:start;letter-spacing:0px;word-spacing:0px;writing-mode:lr-tb;text-anchor:start;fill:#ffffff;fill-opacity:1;stroke:none;stroke-width:1px;stroke-linecap:butt;stroke-linejoin:miter;stroke-opacity:1"
       d="m 368.98837,392.51688 -7.8125,23.33984 -4.90722,0 -7.73926,-23.33984 3.51562,0 4.12598,12.69531 1.29395,3.97949 0.61035,2.00195 0.63476,2.00196 0.0977,0 0.58594,-1.97754 0.58593,-2.00196 1.24512,-3.95507 3.95508,-12.74414 3.80859,0 z" />
    <path
       inkscape:connector-curvature="0"
       id="path4610"
       style="font-style:normal;font-variant:normal;font-weight:normal;font-stretch:normal;font-size:medium;line-height:125%;font-family:Eurostile;-inkscape-font-specification:'Eurostile, Normal';text-align:start;letter-spacing:0px;word-spacing:0px;writing-mode:lr-tb;text-anchor:start;fill:#ffffff;fill-opacity:1;stroke:none;stroke-width:1px;stroke-linecap:butt;stroke-linejoin:miter;stroke-opacity:1"
       d="m 388.05576,408.80106 3.49121,0 0.0244,0.85449 q 0,3.63769 -2.22168,5.10254 -2.19726,1.44043 -7.73926,1.44043 -6.44531,0 -8.47168,-2.34375 -2.00195,-2.36817 -2.00195,-9.91211 0,-6.98242 2.02637,-9.375 2.02636,-2.39258 7.93457,-2.39258 6.44531,0 8.44726,2.07519 2.00196,2.0752 2.00196,8.74024 l 0,1.83105 -16.79688,0 q 0,5.51758 1.17188,7.03125 1.19629,1.51368 5.54199,1.51368 4.12598,0 5.34668,-0.70801 1.24512,-0.73242 1.24512,-3.125 l 0,-0.73242 z m 0,-6.64063 -0.0244,-1.09863 q 0,-3.78418 -1.24512,-4.90723 -1.24511,-1.14746 -5.37109,-1.14746 -4.15039,0 -5.39551,1.34277 -1.2207,1.31836 -1.2207,5.81055 l 13.25684,0 z" />
    <path
       inkscape:connector-curvature="0"
       id="path4612"
       style="font-style:normal;font-variant:normal;font-weight:normal;font-stretch:normal;font-size:medium;line-height:125%;font-family:Eurostile;-inkscape-font-specification:'Eurostile, Normal';text-align:start;letter-spacing:0px;word-spacing:0px;writing-mode:lr-tb;text-anchor:start;fill:#ffffff;fill-opacity:1;stroke:none;stroke-width:1px;stroke-linecap:butt;stroke-linejoin:miter;stroke-opacity:1"
       d="m 400.43369,382.53152 0,33.3252 -3.41797,0 0,-33.3252 3.41797,0 z" />
    <path
       inkscape:connector-curvature="0"
       id="path4614"
       style="font-style:normal;font-variant:normal;font-weight:normal;font-stretch:normal;font-size:medium;line-height:125%;font-family:Eurostile;-inkscape-font-specification:'Eurostile, Normal';text-align:start;letter-spacing:0px;word-spacing:0px;writing-mode:lr-tb;text-anchor:start;fill:#ffffff;fill-opacity:1;stroke:none;stroke-width:1px;stroke-linecap:butt;stroke-linejoin:miter;stroke-opacity:1"
       d="m 416.13193,392.17508 q 6.46972,0 8.39843,2.24609 1.92872,2.2461 1.92872,9.76563 0,7.51953 -1.92872,9.76562 -1.92871,2.2461 -8.39843,2.2461 -6.44532,0 -8.37403,-2.2461 -1.92871,-2.24609 -1.92871,-9.76562 0,-7.51953 1.92871,-9.76563 1.92871,-2.24609 8.37403,-2.24609 z m 0,2.83203 q -4.54102,0 -5.63965,1.48926 -1.07422,1.46484 -1.07422,7.69043 0,6.22558 1.07422,7.71484 1.09863,1.46485 5.63965,1.46485 4.56543,0 5.63965,-1.46485 1.09863,-1.48926 1.09863,-7.71484 0,-6.22559 -1.09863,-7.69043 -1.07422,-1.48926 -5.63965,-1.48926 z" />
    <path
       inkscape:connector-curvature="0"
       id="path4616"
       style="font-style:normal;font-variant:normal;font-weight:normal;font-stretch:normal;font-size:medium;line-height:125%;font-family:Eurostile;-inkscape-font-specification:'Eurostile, Normal';text-align:start;letter-spacing:0px;word-spacing:0px;writing-mode:lr-tb;text-anchor:start;fill:#ffffff;fill-opacity:1;stroke:none;stroke-width:1px;stroke-linecap:butt;stroke-linejoin:miter;stroke-opacity:1"
       d="m 431.78134,392.51688 3.41797,0 -0.1709,2.9541 0.0977,0.0732 q 1.78222,-3.36914 7.66601,-3.36914 5.2002,0 7.15332,2.63672 1.95313,2.63672 1.95313,9.71679 0,6.56739 -1.97754,9.13086 -1.97754,2.53907 -7.03125,2.53907 -5.76172,0 -7.61719,-3.10059 l -0.0732,0 0,12.76856 -3.41797,0 0,-33.34961 z m 10.0586,2.49023 q -4.10157,0 -5.34668,1.78223 -1.24512,1.75781 -1.24512,7.59277 0,5.39551 1.34277,7.20215 1.34278,1.78223 5.39551,1.78223 3.85742,0 5.07812,-1.7334 1.24512,-1.7334 1.24512,-7.15332 0,-5.95703 -1.19629,-7.71485 -1.19629,-1.75781 -5.27343,-1.75781 z" />
    <path
       inkscape:connector-curvature="0"
       id="path4618"
       style="font-style:normal;font-variant:normal;font-weight:normal;font-stretch:normal;font-size:medium;line-height:125%;font-family:Eurostile;-inkscape-font-specification:'Eurostile, Normal';text-align:start;letter-spacing:0px;word-spacing:0px;writing-mode:lr-tb;text-anchor:start;fill:#ffffff;fill-opacity:1;stroke:none;stroke-width:1px;stroke-linecap:butt;stroke-linejoin:miter;stroke-opacity:1"
       d="m 473.60263,408.80106 3.49121,0 0.0244,0.85449 q 0,3.63769 -2.22168,5.10254 -2.19727,1.44043 -7.73926,1.44043 -6.44531,0 -8.47168,-2.34375 -2.00195,-2.36817 -2.00195,-9.91211 0,-6.98242 2.02636,-9.375 2.02637,-2.39258 7.93457,-2.39258 6.44532,0 8.44727,2.07519 2.00195,2.0752 2.00195,8.74024 l 0,1.83105 -16.79687,0 q 0,5.51758 1.17187,7.03125 1.19629,1.51368 5.54199,1.51368 4.12598,0 5.34668,-0.70801 1.24512,-0.73242 1.24512,-3.125 l 0,-0.73242 z m 0,-6.64063 -0.0244,-1.09863 q 0,-3.78418 -1.24512,-4.90723 -1.24512,-1.14746 -5.37109,-1.14746 -4.1504,0 -5.39551,1.34277 -1.22071,1.31836 -1.22071,5.81055 l 13.25684,0 z" />
    <path
       inkscape:connector-curvature="0"
       id="path4620"
       style="font-style:normal;font-variant:normal;font-weight:normal;font-stretch:normal;font-size:medium;line-height:125%;font-family:Eurostile;-inkscape-font-specification:'Eurostile, Normal';text-align:start;letter-spacing:0px;word-spacing:0px;writing-mode:lr-tb;text-anchor:start;fill:#ffffff;fill-opacity:1;stroke:none;stroke-width:1px;stroke-linecap:butt;stroke-linejoin:miter;stroke-opacity:1"
       d="m 482.90439,392.51688 3.41797,0 -0.3418,2.68554 0.0732,0.0732 q 2.02637,-3.2959 6.68946,-3.2959 6.44531,0 6.44531,6.64062 l -0.0244,1.61133 -3.36914,0 0.0733,-0.58594 q 0.0732,-0.92773 0.0732,-1.24511 0,-3.58887 -3.90625,-3.58887 -5.71289,0 -5.71289,7.05566 l 0,13.98926 -3.41797,0 0,-23.33984 z" />
  </g>
</svg>
